<?xml version="1.0" encoding="utf-8"?>
<!-- Svg Vector Icons : http://www.onlinewebfonts.com/icon -->
<!DOCTYPE svg PUBLIC "-//W3C//DTD SVG 1.1//EN" "http://www.w3.org/Graphics/SVG/1.1/DTD/svg11.dtd">
<svg version="1.1" xmlns="http://www.w3.org/2000/svg" xmlns:xlink="http://www.w3.org/1999/xlink" x="0px" y="0px" viewBox="0 0 1000 1000" enable-background="new 0 0 1000 1000" xml:space="preserve">
<metadata> Svg Vector Icons : http://www.onlinewebfonts.com/icon </metadata>
<g><path d="M500,10C229.4,10,10,229.4,10,500s219.4,490,490,490s490-219.4,490-490S770.6,10,500,10z M387.5,728C250,634.6,217.9,452.6,315.8,321.6c83.5-111.8,234.5-150.1,362.5-100.9c-56.3,14.6-107.8,47.1-144.3,95.9C450,428.9,477.6,584.9,595.4,665c51.3,34.8,111.1,49.5,169.3,45.8C660.6,797,504.8,807.8,387.5,728z"/></g>
</svg>